<mxfile host="app.diagrams.net" modified="2023-12-16T11:21:55.074Z" agent="Mozilla/5.0 (Windows NT 10.0; Win64; x64) AppleWebKit/537.36 (KHTML, like Gecko) Chrome/120.0.0.0 Safari/537.36" etag="AWFzDdJO0fYv5uY3GQG4" version="22.1.11" type="github">
  <diagram id="07fea595-8f29-1299-0266-81d95cde20df" name="Page-1">
    <mxGraphModel dx="1434" dy="746" grid="1" gridSize="10" guides="1" tooltips="1" connect="1" arrows="1" fold="1" page="1" pageScale="1" pageWidth="1169" pageHeight="827" background="#ffffff" math="0" shadow="0">
      <root>
        <mxCell id="0" />
        <mxCell id="1" parent="0" />
        <mxCell id="170" value="&lt;font style=&quot;font-size: 24px;&quot; color=&quot;#23497d&quot;&gt;制备工艺&lt;br&gt;&lt;br&gt;&lt;/font&gt;" style="swimlane;whiteSpace=wrap;fillColor=none;swimlaneFillColor=#82a4bf;fontColor=#2F5B7C;fontFamily=Tahoma;html=1;strokeColor=none;opacity=50;rounded=0;" parent="1" vertex="1">
          <mxGeometry x="40" y="89" width="380" height="631" as="geometry">
            <mxRectangle x="24.5" y="88.5" width="80" height="23" as="alternateBounds" />
          </mxGeometry>
        </mxCell>
        <mxCell id="171" value="&lt;font style=&quot;font-size: 16px;&quot;&gt;&lt;b&gt;成型打印&lt;br&gt;参数研究&lt;/b&gt;&lt;/font&gt;" style="whiteSpace=wrap;shadow=0;fontColor=#FFFFFF;fontFamily=Helvetica;fontStyle=0;html=1;fontSize=12;plain-purple;strokeColor=none;fillColor=#2f5b7c;gradientColor=none;spacing=6;verticalAlign=middle;rounded=1;" parent="170" vertex="1">
          <mxGeometry x="127.75" y="41" width="120" height="60" as="geometry" />
        </mxCell>
        <mxCell id="175" value="" style="edgeStyle=segmentEdgeStyle;strokeColor=#2F5B7C;strokeWidth=2;html=1;endArrow=block;endFill=1;entryX=0.5;entryY=0;entryDx=0;entryDy=0;" parent="170" source="171" target="waohQYelDCcC4TeC2zN9-223" edge="1">
          <mxGeometry width="100" height="100" relative="1" as="geometry">
            <mxPoint x="170" y="91" as="sourcePoint" />
            <mxPoint x="100" y="162.5" as="targetPoint" />
            <Array as="points">
              <mxPoint x="188" y="113" />
              <mxPoint x="100" y="113" />
            </Array>
          </mxGeometry>
        </mxCell>
        <mxCell id="202" value="" style="edgeStyle=segmentEdgeStyle;strokeColor=#2F5B7C;strokeWidth=2;html=1;endArrow=block;endFill=1;" parent="170" source="171" edge="1">
          <mxGeometry x="140" y="90" width="100" height="100" as="geometry">
            <mxPoint x="210" y="141" as="sourcePoint" />
            <mxPoint x="280" y="162.5" as="targetPoint" />
            <Array as="points">
              <mxPoint x="188" y="113" />
              <mxPoint x="280" y="113" />
            </Array>
          </mxGeometry>
        </mxCell>
        <mxCell id="waohQYelDCcC4TeC2zN9-243" value="" style="rounded=1;orthogonalLoop=1;jettySize=auto;html=1;edgeStyle=orthogonalEdgeStyle;strokeWidth=2;strokeColor=#2f5b7c;" edge="1" parent="170" source="waohQYelDCcC4TeC2zN9-223" target="waohQYelDCcC4TeC2zN9-242">
          <mxGeometry relative="1" as="geometry">
            <Array as="points">
              <mxPoint x="100" y="323" />
              <mxPoint x="250" y="323" />
            </Array>
          </mxGeometry>
        </mxCell>
        <mxCell id="waohQYelDCcC4TeC2zN9-223" value="&lt;font style=&quot;font-size: 16px;&quot;&gt;&lt;b&gt;实验变量&lt;/b&gt;&lt;/font&gt;" style="swimlane;fontStyle=0;childLayout=stackLayout;horizontal=1;startSize=26;fillColor=none;horizontalStack=0;resizeParent=1;resizeParentMax=0;resizeLast=0;collapsible=1;marginBottom=0;html=1;strokeWidth=2;strokeColor=#2f5b7c;" vertex="1" parent="170">
          <mxGeometry x="30" y="175.5" width="140" height="104" as="geometry" />
        </mxCell>
        <mxCell id="waohQYelDCcC4TeC2zN9-224" value="&lt;font style=&quot;font-size: 15px;&quot;&gt;有无纤维&lt;/font&gt;" style="text;strokeColor=none;fillColor=none;align=center;verticalAlign=top;spacingLeft=4;spacingRight=4;overflow=hidden;rotatable=0;points=[[0,0.5],[1,0.5]];portConstraint=eastwest;whiteSpace=wrap;html=1;" vertex="1" parent="waohQYelDCcC4TeC2zN9-223">
          <mxGeometry y="26" width="140" height="26" as="geometry" />
        </mxCell>
        <mxCell id="waohQYelDCcC4TeC2zN9-225" value="&lt;font style=&quot;font-size: 15px;&quot;&gt;打印温度&lt;/font&gt;" style="text;strokeColor=none;fillColor=none;align=center;verticalAlign=top;spacingLeft=4;spacingRight=4;overflow=hidden;rotatable=0;points=[[0,0.5],[1,0.5]];portConstraint=eastwest;whiteSpace=wrap;html=1;" vertex="1" parent="waohQYelDCcC4TeC2zN9-223">
          <mxGeometry y="52" width="140" height="26" as="geometry" />
        </mxCell>
        <mxCell id="waohQYelDCcC4TeC2zN9-226" value="&lt;font style=&quot;font-size: 15px;&quot;&gt;层厚&lt;/font&gt;" style="text;strokeColor=none;fillColor=none;align=center;verticalAlign=top;spacingLeft=4;spacingRight=4;overflow=hidden;rotatable=0;points=[[0,0.5],[1,0.5]];portConstraint=eastwest;whiteSpace=wrap;html=1;" vertex="1" parent="waohQYelDCcC4TeC2zN9-223">
          <mxGeometry y="78" width="140" height="26" as="geometry" />
        </mxCell>
        <mxCell id="waohQYelDCcC4TeC2zN9-244" value="" style="edgeStyle=orthogonalEdgeStyle;rounded=1;orthogonalLoop=1;jettySize=auto;html=1;strokeWidth=2;strokeColor=#2f5b7c;" edge="1" parent="170" source="waohQYelDCcC4TeC2zN9-236" target="waohQYelDCcC4TeC2zN9-242">
          <mxGeometry relative="1" as="geometry" />
        </mxCell>
        <mxCell id="waohQYelDCcC4TeC2zN9-236" value="&lt;font style=&quot;font-size: 16px;&quot;&gt;&lt;b&gt;表征参数&lt;/b&gt;&lt;/font&gt;" style="swimlane;fontStyle=0;childLayout=stackLayout;horizontal=1;startSize=26;fillColor=none;horizontalStack=0;resizeParent=1;resizeParentMax=0;resizeLast=0;collapsible=1;marginBottom=0;html=1;strokeWidth=2;strokeColor=#2f5b7c;" vertex="1" parent="170">
          <mxGeometry x="210" y="162.5" width="140" height="130" as="geometry" />
        </mxCell>
        <mxCell id="waohQYelDCcC4TeC2zN9-237" value="&lt;font style=&quot;font-size: 15px;&quot;&gt;材料密度&lt;/font&gt;" style="text;strokeColor=none;fillColor=none;align=center;verticalAlign=top;spacingLeft=4;spacingRight=4;overflow=hidden;rotatable=0;points=[[0,0.5],[1,0.5]];portConstraint=eastwest;whiteSpace=wrap;html=1;" vertex="1" parent="waohQYelDCcC4TeC2zN9-236">
          <mxGeometry y="26" width="140" height="26" as="geometry" />
        </mxCell>
        <mxCell id="waohQYelDCcC4TeC2zN9-238" value="&lt;font style=&quot;font-size: 15px;&quot;&gt;发泡率&lt;/font&gt;" style="text;strokeColor=none;fillColor=none;align=center;verticalAlign=top;spacingLeft=4;spacingRight=4;overflow=hidden;rotatable=0;points=[[0,0.5],[1,0.5]];portConstraint=eastwest;whiteSpace=wrap;html=1;" vertex="1" parent="waohQYelDCcC4TeC2zN9-236">
          <mxGeometry y="52" width="140" height="26" as="geometry" />
        </mxCell>
        <mxCell id="waohQYelDCcC4TeC2zN9-239" value="&lt;font style=&quot;font-size: 15px;&quot;&gt;壁厚&lt;/font&gt;" style="text;strokeColor=none;fillColor=none;align=center;verticalAlign=top;spacingLeft=4;spacingRight=4;overflow=hidden;rotatable=0;points=[[0,0.5],[1,0.5]];portConstraint=eastwest;whiteSpace=wrap;html=1;" vertex="1" parent="waohQYelDCcC4TeC2zN9-236">
          <mxGeometry y="78" width="140" height="52" as="geometry" />
        </mxCell>
        <mxCell id="waohQYelDCcC4TeC2zN9-240" value="&lt;font style=&quot;font-size: 15px;&quot;&gt;尺寸精度&lt;/font&gt;" style="text;strokeColor=none;fillColor=none;align=center;verticalAlign=top;spacingLeft=4;spacingRight=4;overflow=hidden;rotatable=0;points=[[0,0.5],[1,0.5]];portConstraint=eastwest;whiteSpace=wrap;html=1;" vertex="1" parent="170">
          <mxGeometry x="210" y="265.5" width="140" height="26" as="geometry" />
        </mxCell>
        <mxCell id="waohQYelDCcC4TeC2zN9-248" value="" style="edgeStyle=orthogonalEdgeStyle;rounded=1;orthogonalLoop=1;jettySize=auto;html=1;strokeColor=#2f5b7c;strokeWidth=2;" edge="1" parent="170" source="waohQYelDCcC4TeC2zN9-242" target="waohQYelDCcC4TeC2zN9-247">
          <mxGeometry relative="1" as="geometry">
            <Array as="points">
              <mxPoint x="250" y="431" />
              <mxPoint x="188" y="431" />
            </Array>
          </mxGeometry>
        </mxCell>
        <mxCell id="waohQYelDCcC4TeC2zN9-242" value="&lt;span style=&quot;font-size: 16px;&quot;&gt;&lt;b&gt;分析连续纤维以及打印参数影响的原因&lt;/b&gt;&lt;/span&gt;" style="whiteSpace=wrap;shadow=0;fontColor=#FFFFFF;fontFamily=Helvetica;fontStyle=0;html=1;fontSize=12;plain-purple;strokeColor=none;fillColor=#2f5b7c;gradientColor=none;spacing=6;verticalAlign=middle;rounded=1;" vertex="1" parent="170">
          <mxGeometry x="170" y="352.5" width="160" height="60" as="geometry" />
        </mxCell>
        <mxCell id="waohQYelDCcC4TeC2zN9-246" value="" style="edgeStyle=orthogonalEdgeStyle;rounded=1;orthogonalLoop=1;jettySize=auto;html=1;strokeWidth=2;strokeColor=#2f5b7c;" edge="1" parent="170" source="waohQYelDCcC4TeC2zN9-245" target="waohQYelDCcC4TeC2zN9-242">
          <mxGeometry relative="1" as="geometry" />
        </mxCell>
        <mxCell id="waohQYelDCcC4TeC2zN9-245" value="&lt;span style=&quot;font-size: 16px;&quot;&gt;&lt;b&gt;SEM&lt;/b&gt;&lt;/span&gt;" style="whiteSpace=wrap;shadow=0;fontColor=#FFFFFF;fontFamily=Helvetica;fontStyle=0;html=1;fontSize=12;plain-purple;strokeColor=none;fillColor=#2f5b7c;gradientColor=none;spacing=6;verticalAlign=middle;rounded=1;" vertex="1" parent="170">
          <mxGeometry x="50" y="363.5" width="67.75" height="38" as="geometry" />
        </mxCell>
        <mxCell id="waohQYelDCcC4TeC2zN9-250" value="" style="edgeStyle=orthogonalEdgeStyle;rounded=1;orthogonalLoop=1;jettySize=auto;html=1;strokeColor=#2f5b7c;strokeWidth=2;" edge="1" parent="170" source="waohQYelDCcC4TeC2zN9-247" target="waohQYelDCcC4TeC2zN9-249">
          <mxGeometry relative="1" as="geometry" />
        </mxCell>
        <mxCell id="waohQYelDCcC4TeC2zN9-247" value="&lt;font style=&quot;font-size: 16px;&quot;&gt;&lt;b&gt;建立&lt;br&gt;打印参数-密度&lt;br&gt;映射关系&lt;/b&gt;&lt;/font&gt;" style="whiteSpace=wrap;shadow=0;fontColor=#FFFFFF;fontFamily=Helvetica;fontStyle=0;html=1;fontSize=12;plain-purple;strokeColor=none;fillColor=#2f5b7c;gradientColor=none;spacing=6;verticalAlign=middle;rounded=1;" vertex="1" parent="170">
          <mxGeometry x="107.75" y="451" width="160" height="69" as="geometry" />
        </mxCell>
        <mxCell id="waohQYelDCcC4TeC2zN9-249" value="&lt;font style=&quot;font-size: 16px;&quot;&gt;&lt;b&gt;打印参数&lt;br&gt;预测方法&lt;br&gt;&lt;/b&gt;&lt;/font&gt;" style="whiteSpace=wrap;shadow=0;fontColor=#FFFFFF;fontFamily=Helvetica;fontStyle=0;html=1;fontSize=12;plain-purple;strokeColor=none;fillColor=#2f5b7c;gradientColor=none;spacing=6;verticalAlign=middle;rounded=1;" vertex="1" parent="170">
          <mxGeometry x="107.75" y="551" width="160" height="59" as="geometry" />
        </mxCell>
        <mxCell id="waohQYelDCcC4TeC2zN9-273" value="&lt;font style=&quot;font-size: 24px;&quot; color=&quot;#23497d&quot;&gt;结构性能&lt;br&gt;&lt;br&gt;&lt;/font&gt;" style="swimlane;whiteSpace=wrap;fillColor=none;swimlaneFillColor=#adc0d1;fontColor=#2F5B7C;fontFamily=Tahoma;html=1;strokeColor=none;opacity=50;rounded=0;" vertex="1" parent="1">
          <mxGeometry x="420" y="89" width="380" height="631" as="geometry">
            <mxRectangle x="24.5" y="88.5" width="80" height="23" as="alternateBounds" />
          </mxGeometry>
        </mxCell>
        <mxCell id="waohQYelDCcC4TeC2zN9-348" value="" style="edgeStyle=orthogonalEdgeStyle;rounded=1;orthogonalLoop=1;jettySize=auto;html=1;entryX=0.5;entryY=0;entryDx=0;entryDy=0;strokeWidth=2;strokeColor=#2f5b7c;" edge="1" parent="waohQYelDCcC4TeC2zN9-273" source="waohQYelDCcC4TeC2zN9-274" target="waohQYelDCcC4TeC2zN9-342">
          <mxGeometry relative="1" as="geometry" />
        </mxCell>
        <mxCell id="waohQYelDCcC4TeC2zN9-274" value="&lt;span style=&quot;font-size: 16px;&quot;&gt;&lt;b&gt;压缩模式&lt;/b&gt;&lt;/span&gt;" style="whiteSpace=wrap;shadow=0;fontColor=#FFFFFF;fontFamily=Helvetica;fontStyle=0;html=1;fontSize=12;plain-purple;strokeColor=none;fillColor=#2f5b7c;gradientColor=none;spacing=6;verticalAlign=middle;rounded=1;" vertex="1" parent="waohQYelDCcC4TeC2zN9-273">
          <mxGeometry x="127.75" y="51" width="120" height="41" as="geometry" />
        </mxCell>
        <mxCell id="waohQYelDCcC4TeC2zN9-338" value="" style="edgeStyle=orthogonalEdgeStyle;rounded=1;orthogonalLoop=1;jettySize=auto;html=1;strokeColor=#2f5b7c;strokeWidth=2;" edge="1" parent="waohQYelDCcC4TeC2zN9-273" source="waohQYelDCcC4TeC2zN9-291" target="waohQYelDCcC4TeC2zN9-317">
          <mxGeometry relative="1" as="geometry" />
        </mxCell>
        <mxCell id="waohQYelDCcC4TeC2zN9-291" value="&lt;span style=&quot;font-size: 16px;&quot;&gt;&lt;b&gt;试件制备&lt;/b&gt;&lt;/span&gt;" style="whiteSpace=wrap;shadow=0;fontColor=#FFFFFF;fontFamily=Helvetica;fontStyle=0;html=1;fontSize=12;plain-purple;strokeColor=none;fillColor=#2f5b7c;gradientColor=none;spacing=6;verticalAlign=middle;rounded=1;" vertex="1" parent="waohQYelDCcC4TeC2zN9-273">
          <mxGeometry x="40" y="351" width="120" height="38" as="geometry" />
        </mxCell>
        <mxCell id="waohQYelDCcC4TeC2zN9-292" value="" style="edgeStyle=orthogonalEdgeStyle;rounded=1;orthogonalLoop=1;jettySize=auto;html=1;strokeColor=#2f5b7c;strokeWidth=2;" edge="1" parent="waohQYelDCcC4TeC2zN9-273" source="waohQYelDCcC4TeC2zN9-293" target="waohQYelDCcC4TeC2zN9-294">
          <mxGeometry relative="1" as="geometry">
            <Array as="points">
              <mxPoint x="280" y="531" />
              <mxPoint x="188" y="531" />
            </Array>
          </mxGeometry>
        </mxCell>
        <mxCell id="waohQYelDCcC4TeC2zN9-293" value="&lt;font style=&quot;font-size: 16px;&quot;&gt;&lt;b&gt;网络划分&lt;br&gt;结构本构&lt;br&gt;边界条件&lt;br&gt;&lt;/b&gt;&lt;/font&gt;" style="whiteSpace=wrap;shadow=0;fontColor=#FFFFFF;fontFamily=Helvetica;fontStyle=0;html=1;fontSize=12;plain-purple;strokeColor=none;fillColor=#2f5b7c;gradientColor=none;spacing=6;verticalAlign=middle;rounded=1;" vertex="1" parent="waohQYelDCcC4TeC2zN9-273">
          <mxGeometry x="220" y="431" width="120" height="69" as="geometry" />
        </mxCell>
        <mxCell id="waohQYelDCcC4TeC2zN9-294" value="&lt;font style=&quot;font-size: 16px;&quot;&gt;&lt;b&gt;不同温度参数下&lt;br&gt;的压溃特性&lt;br&gt;&lt;/b&gt;&lt;/font&gt;" style="whiteSpace=wrap;shadow=0;fontColor=#FFFFFF;fontFamily=Helvetica;fontStyle=0;html=1;fontSize=12;plain-purple;strokeColor=none;fillColor=#2f5b7c;gradientColor=none;spacing=6;verticalAlign=middle;rounded=1;" vertex="1" parent="waohQYelDCcC4TeC2zN9-273">
          <mxGeometry x="107.75" y="551" width="160" height="59" as="geometry" />
        </mxCell>
        <mxCell id="waohQYelDCcC4TeC2zN9-343" value="" style="edgeStyle=orthogonalEdgeStyle;rounded=1;orthogonalLoop=1;jettySize=auto;html=1;strokeWidth=2;strokeColor=#2f5b7c;" edge="1" parent="waohQYelDCcC4TeC2zN9-273" source="waohQYelDCcC4TeC2zN9-317" target="waohQYelDCcC4TeC2zN9-294">
          <mxGeometry relative="1" as="geometry">
            <Array as="points">
              <mxPoint x="100" y="531" />
              <mxPoint x="188" y="531" />
            </Array>
          </mxGeometry>
        </mxCell>
        <mxCell id="waohQYelDCcC4TeC2zN9-317" value="&lt;font style=&quot;&quot;&gt;&lt;b style=&quot;&quot;&gt;&lt;font style=&quot;font-size: 18px;&quot;&gt;压缩试验&lt;/font&gt;&lt;br&gt;&lt;/b&gt;&lt;/font&gt;" style="whiteSpace=wrap;shadow=0;fontColor=#FFFFFF;fontFamily=Helvetica;fontStyle=0;html=1;fontSize=12;plain-purple;strokeColor=none;fillColor=#2f5b7c;gradientColor=none;spacing=6;verticalAlign=middle;rounded=1;" vertex="1" parent="waohQYelDCcC4TeC2zN9-273">
          <mxGeometry x="40" y="431" width="120" height="69" as="geometry" />
        </mxCell>
        <mxCell id="waohQYelDCcC4TeC2zN9-337" value="" style="edgeStyle=orthogonalEdgeStyle;rounded=1;orthogonalLoop=1;jettySize=auto;html=1;strokeWidth=2;strokeColor=#2f5b7c;" edge="1" parent="waohQYelDCcC4TeC2zN9-273" source="waohQYelDCcC4TeC2zN9-336" target="waohQYelDCcC4TeC2zN9-293">
          <mxGeometry relative="1" as="geometry" />
        </mxCell>
        <mxCell id="waohQYelDCcC4TeC2zN9-336" value="&lt;span style=&quot;font-size: 16px;&quot;&gt;&lt;b&gt;仿真模型建立&lt;/b&gt;&lt;/span&gt;" style="whiteSpace=wrap;shadow=0;fontColor=#FFFFFF;fontFamily=Helvetica;fontStyle=0;html=1;fontSize=12;plain-purple;strokeColor=none;fillColor=#2f5b7c;gradientColor=none;spacing=6;verticalAlign=middle;rounded=1;" vertex="1" parent="waohQYelDCcC4TeC2zN9-273">
          <mxGeometry x="220" y="351" width="120" height="38" as="geometry" />
        </mxCell>
        <mxCell id="waohQYelDCcC4TeC2zN9-339" value="&lt;span style=&quot;font-size: 16px;&quot;&gt;&lt;b&gt;结构设计&lt;/b&gt;&lt;/span&gt;" style="whiteSpace=wrap;shadow=0;fontColor=#FFFFFF;fontFamily=Helvetica;fontStyle=0;html=1;fontSize=12;plain-purple;strokeColor=none;fillColor=#2f5b7c;gradientColor=none;spacing=6;verticalAlign=middle;rounded=1;" vertex="1" parent="waohQYelDCcC4TeC2zN9-273">
          <mxGeometry x="127.75" y="271" width="120" height="38" as="geometry" />
        </mxCell>
        <mxCell id="waohQYelDCcC4TeC2zN9-346" value="" style="edgeStyle=orthogonalEdgeStyle;rounded=1;orthogonalLoop=1;jettySize=auto;html=1;strokeWidth=2;strokeColor=#2f5b7c;" edge="1" parent="waohQYelDCcC4TeC2zN9-273" source="waohQYelDCcC4TeC2zN9-341" target="waohQYelDCcC4TeC2zN9-339">
          <mxGeometry relative="1" as="geometry" />
        </mxCell>
        <mxCell id="waohQYelDCcC4TeC2zN9-341" value="&lt;span style=&quot;font-size: 16px;&quot;&gt;&lt;b&gt;折叠式薄壁管&lt;/b&gt;&lt;/span&gt;" style="whiteSpace=wrap;shadow=0;fontColor=#FFFFFF;fontFamily=Helvetica;fontStyle=0;html=1;fontSize=12;plain-purple;strokeColor=none;fillColor=#2f5b7c;gradientColor=none;spacing=6;verticalAlign=middle;rounded=1;" vertex="1" parent="waohQYelDCcC4TeC2zN9-273">
          <mxGeometry x="40" y="171" width="120" height="38" as="geometry" />
        </mxCell>
        <mxCell id="waohQYelDCcC4TeC2zN9-347" value="" style="edgeStyle=orthogonalEdgeStyle;rounded=1;orthogonalLoop=1;jettySize=auto;html=1;strokeWidth=2;strokeColor=#2f5b7c;" edge="1" parent="waohQYelDCcC4TeC2zN9-273" source="waohQYelDCcC4TeC2zN9-342" target="waohQYelDCcC4TeC2zN9-339">
          <mxGeometry relative="1" as="geometry" />
        </mxCell>
        <mxCell id="waohQYelDCcC4TeC2zN9-342" value="&lt;span style=&quot;font-size: 16px;&quot;&gt;&lt;b&gt;鼓胀式薄壁管&lt;/b&gt;&lt;/span&gt;" style="whiteSpace=wrap;shadow=0;fontColor=#FFFFFF;fontFamily=Helvetica;fontStyle=0;html=1;fontSize=12;plain-purple;strokeColor=none;fillColor=#2f5b7c;gradientColor=none;spacing=6;verticalAlign=middle;rounded=1;" vertex="1" parent="waohQYelDCcC4TeC2zN9-273">
          <mxGeometry x="220" y="171" width="120" height="38" as="geometry" />
        </mxCell>
        <mxCell id="waohQYelDCcC4TeC2zN9-345" value="" style="edgeStyle=orthogonalEdgeStyle;rounded=1;orthogonalLoop=1;jettySize=auto;html=1;entryX=0.5;entryY=0;entryDx=0;entryDy=0;strokeColor=#2f5b7c;strokeWidth=2;" edge="1" parent="waohQYelDCcC4TeC2zN9-273" source="waohQYelDCcC4TeC2zN9-339" target="waohQYelDCcC4TeC2zN9-336">
          <mxGeometry relative="1" as="geometry" />
        </mxCell>
        <mxCell id="waohQYelDCcC4TeC2zN9-350" value="" style="edgeStyle=orthogonalEdgeStyle;rounded=1;orthogonalLoop=1;jettySize=auto;html=1;exitX=0.5;exitY=1;exitDx=0;exitDy=0;entryX=0.5;entryY=0;entryDx=0;entryDy=0;strokeWidth=2;strokeColor=#2f5b7c;" edge="1" parent="waohQYelDCcC4TeC2zN9-273" source="waohQYelDCcC4TeC2zN9-274" target="waohQYelDCcC4TeC2zN9-341">
          <mxGeometry relative="1" as="geometry">
            <mxPoint x="198" y="102" as="sourcePoint" />
            <mxPoint x="110" y="181" as="targetPoint" />
          </mxGeometry>
        </mxCell>
        <mxCell id="waohQYelDCcC4TeC2zN9-295" value="&lt;font style=&quot;font-size: 24px;&quot; color=&quot;#23497d&quot;&gt;参数优化&lt;br&gt;&lt;br&gt;&lt;/font&gt;" style="swimlane;whiteSpace=wrap;fillColor=none;swimlaneFillColor=#d7dfe5;fontColor=#2F5B7C;fontFamily=Tahoma;html=1;strokeColor=none;opacity=50;rounded=0;" vertex="1" parent="1">
          <mxGeometry x="800" y="89" width="240" height="631" as="geometry">
            <mxRectangle x="24.5" y="88.5" width="80" height="23" as="alternateBounds" />
          </mxGeometry>
        </mxCell>
        <mxCell id="waohQYelDCcC4TeC2zN9-353" value="" style="edgeStyle=orthogonalEdgeStyle;rounded=1;orthogonalLoop=1;jettySize=auto;html=1;strokeWidth=2;strokeColor=#2f5b7c;" edge="1" parent="waohQYelDCcC4TeC2zN9-295" source="waohQYelDCcC4TeC2zN9-296" target="waohQYelDCcC4TeC2zN9-315">
          <mxGeometry relative="1" as="geometry" />
        </mxCell>
        <mxCell id="waohQYelDCcC4TeC2zN9-296" value="&lt;span style=&quot;font-size: 16px;&quot;&gt;&lt;b&gt;数值模拟结果&lt;/b&gt;&lt;/span&gt;" style="whiteSpace=wrap;shadow=0;fontColor=#FFFFFF;fontFamily=Helvetica;fontStyle=0;html=1;fontSize=12;plain-purple;strokeColor=none;fillColor=#2f5b7c;gradientColor=none;spacing=6;verticalAlign=middle;rounded=1;" vertex="1" parent="waohQYelDCcC4TeC2zN9-295">
          <mxGeometry x="60" y="51" width="120" height="60" as="geometry" />
        </mxCell>
        <mxCell id="waohQYelDCcC4TeC2zN9-354" value="" style="edgeStyle=orthogonalEdgeStyle;rounded=1;orthogonalLoop=1;jettySize=auto;html=1;strokeWidth=2;strokeColor=#2f5b7c;" edge="1" parent="waohQYelDCcC4TeC2zN9-295" source="waohQYelDCcC4TeC2zN9-315" target="waohQYelDCcC4TeC2zN9-352">
          <mxGeometry relative="1" as="geometry" />
        </mxCell>
        <mxCell id="waohQYelDCcC4TeC2zN9-315" value="&lt;b style=&quot;&quot;&gt;&lt;font style=&quot;font-size: 18px;&quot;&gt;参数权重设定&lt;/font&gt;&lt;/b&gt;" style="whiteSpace=wrap;shadow=0;fontColor=#FFFFFF;fontFamily=Helvetica;fontStyle=0;html=1;fontSize=12;plain-purple;strokeColor=none;fillColor=#2f5b7c;gradientColor=none;spacing=6;verticalAlign=middle;rounded=1;" vertex="1" parent="waohQYelDCcC4TeC2zN9-295">
          <mxGeometry x="40" y="181" width="160" height="69" as="geometry" />
        </mxCell>
        <mxCell id="waohQYelDCcC4TeC2zN9-316" value="&lt;font style=&quot;font-size: 18px;&quot;&gt;&lt;b&gt;夹层结构&lt;br&gt;参数最优解&lt;br&gt;&lt;/b&gt;&lt;/font&gt;" style="whiteSpace=wrap;shadow=0;fontColor=#FFFFFF;fontFamily=Helvetica;fontStyle=0;html=1;fontSize=12;plain-purple;strokeColor=none;fillColor=#2f5b7c;gradientColor=none;spacing=6;verticalAlign=middle;rounded=1;" vertex="1" parent="waohQYelDCcC4TeC2zN9-295">
          <mxGeometry x="40" y="541" width="160" height="70" as="geometry" />
        </mxCell>
        <mxCell id="waohQYelDCcC4TeC2zN9-355" style="edgeStyle=orthogonalEdgeStyle;rounded=1;orthogonalLoop=1;jettySize=auto;html=1;exitX=0.5;exitY=1;exitDx=0;exitDy=0;strokeWidth=2;strokeColor=#2f5b7c;" edge="1" parent="waohQYelDCcC4TeC2zN9-295" source="waohQYelDCcC4TeC2zN9-352" target="waohQYelDCcC4TeC2zN9-316">
          <mxGeometry relative="1" as="geometry" />
        </mxCell>
        <mxCell id="waohQYelDCcC4TeC2zN9-352" value="&lt;b style=&quot;&quot;&gt;&lt;font style=&quot;font-size: 18px;&quot;&gt;参数结构优化&lt;/font&gt;&lt;/b&gt;" style="whiteSpace=wrap;shadow=0;fontColor=#FFFFFF;fontFamily=Helvetica;fontStyle=0;html=1;fontSize=12;plain-purple;strokeColor=none;fillColor=#2f5b7c;gradientColor=none;spacing=6;verticalAlign=middle;rounded=1;" vertex="1" parent="waohQYelDCcC4TeC2zN9-295">
          <mxGeometry x="40" y="351" width="160" height="69" as="geometry" />
        </mxCell>
        <mxCell id="waohQYelDCcC4TeC2zN9-340" value="&lt;span style=&quot;font-size: 16px;&quot;&gt;&lt;b&gt;试件制备&lt;/b&gt;&lt;/span&gt;" style="whiteSpace=wrap;shadow=0;fontColor=#FFFFFF;fontFamily=Helvetica;fontStyle=0;html=1;fontSize=12;plain-purple;strokeColor=none;fillColor=#2f5b7c;gradientColor=none;spacing=6;verticalAlign=middle;rounded=1;" vertex="1" parent="1">
          <mxGeometry x="460" y="440" width="120" height="38" as="geometry" />
        </mxCell>
        <mxCell id="waohQYelDCcC4TeC2zN9-344" value="" style="edgeStyle=orthogonalEdgeStyle;rounded=1;orthogonalLoop=1;jettySize=auto;html=1;strokeColor=#2f5b7c;strokeWidth=2;" edge="1" parent="1" source="waohQYelDCcC4TeC2zN9-339" target="waohQYelDCcC4TeC2zN9-340">
          <mxGeometry relative="1" as="geometry" />
        </mxCell>
        <mxCell id="waohQYelDCcC4TeC2zN9-351" style="edgeStyle=orthogonalEdgeStyle;rounded=1;orthogonalLoop=1;jettySize=auto;html=1;exitX=1;exitY=0.5;exitDx=0;exitDy=0;entryX=0;entryY=0.5;entryDx=0;entryDy=0;strokeWidth=2;strokeColor=#f20d46;" edge="1" parent="1" source="waohQYelDCcC4TeC2zN9-249" target="waohQYelDCcC4TeC2zN9-340">
          <mxGeometry relative="1" as="geometry">
            <Array as="points">
              <mxPoint x="410" y="670" />
              <mxPoint x="410" y="459" />
            </Array>
          </mxGeometry>
        </mxCell>
        <mxCell id="waohQYelDCcC4TeC2zN9-356" style="edgeStyle=orthogonalEdgeStyle;rounded=1;orthogonalLoop=1;jettySize=auto;html=1;exitX=1;exitY=0.5;exitDx=0;exitDy=0;entryX=0;entryY=0.5;entryDx=0;entryDy=0;strokeWidth=2;strokeColor=#f20d46;" edge="1" parent="1" source="waohQYelDCcC4TeC2zN9-336" target="waohQYelDCcC4TeC2zN9-296">
          <mxGeometry relative="1" as="geometry" />
        </mxCell>
      </root>
    </mxGraphModel>
  </diagram>
</mxfile>
